<?xml version="1.0" encoding="UTF-8"?>
<svg width="1300" height="600" fill="none" stroke-linecap="square" stroke-miterlimit="10" version="1.1" viewBox="0 0 1300 600" xmlns="http://www.w3.org/2000/svg" xmlns:cc="http://creativecommons.org/ns#" xmlns:dc="http://purl.org/dc/elements/1.1/" xmlns:rdf="http://www.w3.org/1999/02/22-rdf-syntax-ns#">
 <metadata>
  <rdf:RDF>
   <cc:Work rdf:about="">
    <dc:format>image/svg+xml</dc:format>
    <dc:type rdf:resource="http://purl.org/dc/dcmitype/StillImage"/>
   </cc:Work>
  </rdf:RDF>
 </metadata>
 <clipPath>
  <path d="m0 0h1500v1500h-1500z"/>
 </clipPath>
 <path d="m221.62 462.74q-30.907 0-47.627-10.64t-23.813-25.333-7.0933-30.4 3.04-25.84q4.56-18.24 13.68-32.933 9.12-15.2 20.773-26.853 11.653-12.16 24.32-20.773 13.173-9.12 25.84-15.2-8.1067-3.04-15.2-8.6133-6.5867-5.5733-11.147-13.173-4.0533-8.1067-5.0667-18.747-1.0133-11.147 3.04-24.827 3.04-10.64 11.147-22.293 8.6133-11.653 22.293-21.28 13.68-9.6267 31.92-15.707 18.747-6.5867 41.547-6.5867 16.72 0 27.867 6.08 11.653 6.08 17.733 15.2 6.5867 8.6133 7.0933 18.747 1.0133 10.133-4.0533 19.253-2.5333 4.0533-6.5867 6.5867-4.0533 2.5333-8.6133 1.52-4.0533-1.0133-5.5733-4.0533-1.52-3.04 0.50667-7.0933 13.173-24.32 3.04-37.493-9.6267-13.68-33.947-10.133-23.813 3.04-42.053 19.253-18.24 15.707-27.867 34.96-9.12 18.747-8.1067 36.987 1.0133 17.733 15.707 25.333 15.707-5.5733 26.347-6.08 11.147-1.0133 12.16 3.5467 1.0133 4.0533-2.5333 7.0933-3.04 3.04-9.12 5.0667-5.5733 1.52-13.68 1.52-7.6 0-15.707-1.52-17.227 10.133-30.907 27.867-13.68 17.733-22.8 38-8.6133 20.267-12.16 40.533-3.04 20.267 0.50667 36.48 3.5467 16.213 14.693 25.84 11.653 9.6267 32.427 7.6 25.333-2.0267 41.547-14.693 16.72-12.667 25.84-29.893 9.6267-17.227 12.667-35.973 3.04-19.253 0.50667-34.453-2.0267-15.2-9.12-23.307-6.5867-8.1067-16.213-3.5467-5.5733 2.5333-7.0933 12.16-1.52 9.12 5.0667 19.253 2.5333 4.0533 1.0133 9.12-1.0133 4.56-5.0667 7.0933-4.0533 2.5333-8.1067 2.0267-4.0533-1.0133-6.5867-5.0667-4.0533-5.5733-4.0533-12.667t2.5333-14.187q2.5333-7.0933 7.6-13.173 5.5733-6.08 12.667-9.6267 15.707-7.6 28.373-5.0667 13.173 2.0267 21.28 11.653 8.6133 9.12 11.653 24.32 3.04 14.693-1.52 31.413-7.6 28.373-22.293 46.613-14.187 17.733-30.907 27.867-16.72 10.133-33.44 14.187-16.213 4.0533-28.373 4.0533zm44.587-194.56q-3.04 1.0133-6.08 2.0267-3.04 0.50667-6.08 2.0267 2.0267 0.50666 4.56 0.50666 2.5333 0 5.0667 0 5.0667 0.50667 6.5867-2.5333t-4.0533-2.0267zm135.28 192.03q-18.24-0.50667-31.92-6.08-13.68-6.08-21.787-14.693-7.6-8.6133-9.6267-18.747-2.0267-10.64 3.04-19.76 2.5333-4.0533 6.5867-6.08 4.56-2.5333 9.12-1.52 4.0533 1.0133 5.5733 4.0533 1.52 2.5333 0 6.5867-5.0667 11.653-3.04 20.773 2.5333 8.6133 9.12 14.693 6.5867 6.08 15.707 9.12 9.6267 3.04 19.76 3.04 14.187 0 27.36-5.5733 13.173-6.08 19.253-16.213 6.5867-10.133 3.5467-23.813t-20.773-29.387q-2.5333-2.0267-7.6-6.08-4.56-4.0533-9.6267-8.1067-4.56-4.56-9.12-8.6133-4.56-4.0533-6.5867-6.08-23.307-21.28-26.347-41.04-2.5333-20.267 8.1067-35.467 10.64-15.2 31.413-24.32 21.28-9.6267 45.093-9.6267 18.24 0 30.4 6.08 12.16 5.5733 18.747 14.693 6.5867 8.6133 7.0933 19.253 0.50666 10.133-4.56 19.253-2.5333 4.0533-7.0933 6.5867-4.0533 2.5333-8.6133 1.52-4.0533-1.0133-5.5733-4.0533t0-6.5867q5.0667-12.16 4.0533-20.773-1.0133-9.12-6.08-15.2-4.56-6.08-13.173-9.12-8.1067-3.04-18.24-3.04-14.187 0-27.36 6.08-13.173 5.5733-19.76 15.707-6.08 10.133-3.04 23.813 3.04 13.68 21.28 29.387 2.5333 2.5333 7.0933 6.5867 4.56 3.5467 9.6267 8.1067 5.0667 4.0533 9.12 8.1067 4.56 4.0533 7.0933 6.08 25.333 22.8 28.88 43.067 4.0533 20.267-7.0933 35.467-10.64 15.2-32.427 23.813t-47.627 8.1067zm132.24-0.50667q-4.56 0-9.6267-2.0267-5.0667-2.0267-8.6133-6.08-3.04-4.0533-4.56-10.133-1.0133-6.5867 1.52-15.707 4.0533-15.707 10.133-39.013 6.5867-23.307 13.68-48.64 7.0933-25.84 13.68-50.16 7.0933-24.827 12.16-44.08h-26.347v-7.0933h28.373q5.0667 0 10.64-3.5467 6.08-4.0533 11.147-9.6267 5.5733-6.08 9.6267-13.173 4.0533-7.0933 6.08-13.68h5.0667q-1.52 5.0667-2.5333 9.12-0.50667 4.0533-2.0267 8.6133-1.0133 4.0533-2.5333 9.6267-1.0133 5.0667-3.04 12.667h25.333v7.0933h-26.853q-7.0933 25.333-14.693 52.693-7.6 27.36-14.187 51.173-6.08 23.307-11.147 40.027-4.56 16.213-5.0667 19.253-3.04 11.653-2.5333 20.267 0.50666 8.1067 9.12 8.1067 6.5867 0 12.667-7.6 6.08-8.1067 8.6133-16.213l3.5467-0.50667q-2.5333 8.6133-7.0933 17.227-4.56 8.6133-10.64 15.707-6.08 6.5867-14.187 11.147-7.6 4.56-15.707 4.56zm223.95-224.45q4.0533 0.50666 5.5733 4.0533 2.0267 3.04 1.0133 7.0933-1.0133 4.0533-5.5733 7.6-4.0533 3.04-8.1067 2.5333-13.173-1.52-26.853 2.0267t-26.347 11.653q-12.16 8.1067-22.293 19.76t-16.213 26.853q-4.56 16.213-11.147 39.52-6.08 23.307-12.16 46.107-1.0133 3.04-2.0267 5.5733-1.0133 2.5333-1.52 4.56-0.50667 2.0267-0.50667 2.5333-6.5867 19.253-19.76 31.92-12.667 12.667-35.467 12.667v-2.5333q6.08-1.52 9.6267-5.0667 3.5467-4.0533 6.08-10.64 3.04-6.5867 5.0667-16.213 2.5333-9.6267 6.08-22.8h0.50667q0.50666-2.0267 0.50666-4.0533 0.50667-2.0267 1.52-4.0533 4.56-17.227 9.6267-36.987 5.5733-20.267 10.133-36.987 4.56-17.227 7.6-28.373 3.5467-11.653 3.5467-12.16 6.08-22.8 17.733-32.933 12.16-10.133 37.493-10.133v2.5333q-10.133 0-14.693 13.68-4.56 13.173-11.147 38.507 8.6133-12.16 19.76-22.8 11.653-11.147 23.813-18.747 12.16-7.6 24.32-11.653 12.667-4.0533 23.813-3.04zm15.2 227.49q-18.24 0-32.427-8.6133-13.68-9.12-21.787-24.32-8.1067-15.707-9.6267-35.973-1.0133-20.773 5.0667-44.08 6.08-22.8 19.253-43.067 13.173-20.773 30.4-35.973 17.227-15.707 36.987-24.827 19.76-9.6267 39.013-9.6267 30.907 0 41.04 15.2 10.64 14.693 4.56 36.987-3.04 10.64-11.653 23.307-8.6133 12.16-24.827 25.333-16.213 13.173-41.547 26.347-25.333 12.667-61.307 23.813 0.50667 26.347 10.64 44.587 10.133 17.733 30.907 17.733 15.707 0 29.893-6.08 14.187-6.5867 30.907-21.787 1.52-1.52 2.5333-0.50667 1.52 1.0133 0 2.5333-3.04 3.04-10.64 9.6267-7.0933 6.08-17.733 12.667-10.64 6.5867-23.307 11.653-12.667 5.0667-26.347 5.0667zm65.36-219.89q-20.773 0-37.493 13.173-16.72 13.173-28.88 33.44-11.653 19.76-18.747 44.08-6.5867 24.32-7.0933 47.12 23.307-6.5867 42.56-19.253 19.253-12.667 33.44-27.867 14.693-15.707 23.813-31.413 9.12-16.213 11.653-29.387 2.5333-13.173-2.0267-21.28-4.56-8.6133-17.227-8.6133zm185.44-97.28q4.0533 1.0133 5.0667 5.5733 1.0133 4.0533-3.04 8.1067-3.04 4.0533-7.6001 4.56-4.56 0.50667-7.0933-3.04t-6.08-6.08q-3.04-2.5333-8.1066-2.0267-4.0533 0.50666-8.6133 4.56-4.56 3.5467-9.6267 12.667-4.56 9.12-10.133 24.827-5.5733 15.2-11.653 38-1.0133 3.04-5.5733 20.267-4.56 17.227-11.147 42.56-6.5867 24.827-14.693 54.213-7.6 28.88-14.693 55.227-1.0133 2.5333-1.52 4.56-0.50667 2.0267-1.0133 3.5467t-0.50667 2.0267q-6.5867 19.253-19.76 31.92-12.667 12.667-35.467 12.667v-2.5333q6.08-1.52 9.12-5.0667 3.5467-4.0533 6.08-10.133 2.5333-6.08 4.56-15.2 2.5333-9.12 6.08-21.787 5.0667-20.267 11.653-44.08t12.667-47.12q6.08-23.813 11.653-44.587 5.5733-20.773 9.6267-34.96 9.12-33.947 22.293-52.693 13.68-18.747 27.867-27.36 14.693-8.6133 27.867-9.6267 13.173-1.0133 21.787 1.0133zm65.361 0q4.0534 1.0133 5.0667 5.5733 1.0133 4.0533-3.04 8.1067-3.04 4.0533-7.6 4.56t-7.0933-3.04q-2.5334-3.5467-6.0801-6.08-3.04-2.5333-8.1066-2.0267-4.0534 0.50666-8.6134 4.56-4.56 3.5467-9.6266 12.667-4.56 9.12-10.133 24.827-5.5733 15.2-11.653 38-1.0134 3.04-5.5734 20.267t-11.147 42.56q-6.5867 24.827-14.693 54.213-7.6 28.88-14.693 55.227-1.0133 2.5333-1.52 4.56-0.50667 2.0267-1.0133 3.5467t-0.50667 2.0267q-6.5867 19.253-19.76 31.92-12.667 12.667-35.467 12.667v-2.5333q6.08-1.52 9.12-5.0667 3.5467-4.0533 6.08-10.133 2.5333-6.08 4.56-15.2 2.5333-9.12 6.08-21.787 5.0667-20.267 11.653-44.08t12.667-47.12q6.08-23.813 11.653-44.587 5.5733-20.773 9.6267-34.96 9.12-33.947 22.293-52.693 13.68-18.747 27.867-27.36 14.693-8.6133 27.867-9.6267 13.173-1.0133 21.787 1.0133zm-33.44 317.68q-14.693 0-24.32-6.08-9.6266-6.5867-14.693-16.213-5.0667-10.133-7.0933-22.8-1.52-12.667-1.0134-24.827 0.5067-12.667 2.5334-23.813 2.0266-11.653 4.0533-19.253 3.04-11.147 10.64-30.4 7.6-19.253 19.76-37.493t28.373-31.413q16.213-13.68 36.48-13.68 12.16 0 20.267 5.0667 8.1066 4.56 13.173 12.16 5.0667 7.6 7.0934 17.733 2.5333 9.6267 3.04 19.76 3.5466-12.16 6.08-21.787 2.5333-9.6267 3.04-16.213 1.0133-7.0933-0.5067-10.64-1.52-4.0533-6.5867-4.0533l1.0134-2.5333q12.667 0 19.76 4.56 7.6 4.56 10.64 12.16 3.5466 7.6 3.04 17.733-0.5067 10.133-3.5467 21.787-3.04 10.133-4.56 15.2-1.0133 5.0667-2.5333 9.6267-1.0134 4.0533-2.5334 10.133-1.52 6.08-5.0666 18.747-6.08 21.787-9.12 33.947-3.04 11.653-5.0667 18.24-1.52 6.5867-2.5333 9.6267-0.5067 2.5333-1.52 6.08-3.04 11.653-2.5334 16.72 1.0134 4.56 4.56 4.56 3.5467 0 8.6134-6.08 5.0666-6.5867 11.653-22.8h2.5333q-2.5333 8.1067-6.5866 17.733-4.0534 9.12-9.6267 17.227-5.5733 7.6-13.173 12.667-7.0934 5.0667-15.2 5.0667-9.12 0-15.2-8.1067-5.5733-8.1067-1.0133-25.84 1.52-5.0667 2.5333-9.12-5.5733 8.6133-12.667 17.227-6.5867 8.1067-14.693 14.693t-17.733 10.64q-9.12 4.0533-19.76 4.0533zm60.293-215.84q-14.693 0-28.373 15.2-13.173 15.2-23.307 38-9.6267 22.8-15.707 49.653-6.08 26.347-6.5866 49.147-0.5067 22.8 5.0666 38 6.08 15.2 20.267 15.2 9.12 0 18.747-7.6 10.133-7.6 18.747-18.24 8.6133-10.64 15.2-22.293 6.5866-12.16 9.6266-21.28 2.5334-10.64 4.56-17.733 2.0267-7.0933 5.0667-18.747 1.52-5.5733 2.5333-9.6267 1.52-4.0533 2.5334-8.1067 3.5467-17.227 3.04-31.92 0-14.693-4.0534-25.84-3.5466-11.147-10.64-17.227-7.0933-6.5867-16.72-6.5867z" fill="#000" aria-label="Estrella"/>
</svg>
